<svg id="Capa_1" enable-background="new 0 0 512 512" height="512" viewBox="0 0 512 512" width="512" xmlns="http://www.w3.org/2000/svg"><g id="XMLID_839_"><path id="XMLID_1755_" d="m348.188 120h-252c-35.346 0-64 28.654-64 64v180h448v-112c.001-72.902-59.098-132-132-132z" fill="#a0c8ff"/><path id="XMLID_1757_" d="m32.188 184h429.154c-23.095-38.348-65.127-64-113.154-64h-252c-35.346 0-64 28.654-64 64z" fill="#fff"/><path id="XMLID_2140_" d="m480.062 248v-1.614c-.953-22.759-7.663-44.027-18.719-62.386h-429.155v64z" fill="#e4f5fb"/><path id="XMLID_1750_" d="m64 408h-32c-12.15 0-22-9.85-22-22 0-12.15 9.85-22 22-22h76.037 295.927 76.036c12.15 0 22 9.85 22 22 0 12.15-9.85 22-22 22h-32z" fill="#e0e1e7"/><path id="XMLID_1741_" d="m387.537 72h-323.475c-26.51 0-48 21.49-48 48h470.696c-24.003-30.319-60.551-48-99.221-48z" fill="#c68966"/><path id="XMLID_1633_" d="m440.062 248h40v44h-27.833c-6.719 0-12.167-5.447-12.167-12.167z" fill="#ff9b9b"/><circle id="XMLID_1366_" cx="106.188" cy="398" fill="#9da5be" r="42"/><circle id="XMLID_1240_" cx="406.062" cy="398" fill="#9da5be" r="42"/><g id="XMLID_263_"><path id="XMLID_277_" d="m106.19 388c-2.63 0-5.21 1.07-7.07 2.93s-2.93 4.44-2.93 7.07 1.07 5.21 2.93 7.07 4.44 2.93 7.07 2.93 5.21-1.07 7.07-2.93 2.93-4.44 2.93-7.07-1.07-5.21-2.93-7.07-4.44-2.93-7.07-2.93z"/><path id="XMLID_289_" d="m406.06 388c-2.63 0-5.21 1.07-7.07 2.93s-2.93 4.44-2.93 7.07 1.07 5.21 2.93 7.07 4.44 2.93 7.07 2.93c2.64 0 5.21-1.07 7.07-2.93s2.93-4.44 2.93-7.07-1.07-5.21-2.93-7.07-4.44-2.93-7.07-2.93z"/><path id="XMLID_290_" d="m225.06 82c2.63 0 5.21-1.07 7.07-2.93s2.93-4.44 2.93-7.07-1.07-5.21-2.93-7.07-4.44-2.93-7.07-2.93-5.21 1.07-7.07 2.93-2.93 4.44-2.93 7.07 1.07 5.21 2.93 7.07 4.44 2.93 7.07 2.93z"/><path id="XMLID_293_" d="m490.188 355.673v-103.673c0-51.795-27.879-97.194-69.415-122h65.984c3.835 0 7.332-2.193 9.002-5.645s1.219-7.555-1.162-10.562c-26.056-32.915-65.079-51.793-107.06-51.793h-117.475c-5.523 0-10 4.477-10 10s4.477 10 10 10h117.476c28.239 0 54.909 10.007 75.831 28h-435.973c4.4-16.118 19.171-28 36.665-28h116c5.523 0 10-4.477 10-10s-4.477-10-10-10h-116c-31.981 0-58 26.019-58 58 0 5.523 4.477 10 10 10h29.607c-14.434 13.513-23.48 32.715-23.48 54v171.545c-12.858 4.153-22.188 16.232-22.188 30.455 0 17.645 14.355 32 32 32h26.194c7.853 18.773 26.406 32 47.995 32s40.142-13.227 47.995-32h203.884c7.853 18.773 26.406 32 47.995 32s40.142-13.227 47.995-32h25.942c17.645 0 32-14.355 32-32 0-14.083-9.148-26.062-21.812-30.327zm-56.464-1.673c-8.018-5.059-17.501-8-27.662-8s-19.644 2.941-27.662 8h-244.549c-8.018-5.059-17.501-8-27.662-8s-19.644 2.941-27.662 8h-36.339v-96h387.873v21.833c0 12.223 9.944 22.167 22.167 22.167h17.96v52zm-262.329-160v44h-129.207v-44zm149.333 0v44h-129.333v-44zm134.769 0c7.253 13.365 12.073 28.231 13.883 44h-128.652v-44zm-5.435 64h20v24h-17.833c-1.195 0-2.167-.972-2.167-2.167zm-353.874-128h252c37.633 0 71.336 17.131 93.733 44h-398.789c4.705-25.012 26.698-44 53.056-44zm-64.188 268c-6.617 0-12-5.383-12-12s5.383-12 12-12h.188 27.893c-3.756 7.186-5.893 15.346-5.893 24zm74.188 32c-17.645 0-32-14.355-32-32s14.355-32 32-32 32 14.355 32 32-14.355 32-32 32zm52-32c0-8.654-2.137-16.814-5.893-24h207.658c-3.756 7.186-5.893 15.346-5.893 24zm247.874 32c-17.645 0-32-14.355-32-32s14.355-32 32-32 32 14.355 32 32-14.355 32-32 32zm73.938-32h-21.938c0-8.654-2.137-16.814-5.893-24h27.831c6.617 0 12 5.383 12 12s-5.383 12-12 12z"/></g></g></svg>